<svg xmlns="http://www.w3.org/2000/svg" id="Layer_1" data-name="Layer 1" viewBox="0 0 571.57 139.83">
	<defs>
		<style>.cls-1{fill:#a2c617;}</style>
	</defs>
	<path class="cls-1" d="M214.13,135.67a3,3,0,0,1-3,3H190.29a3,3,0,0,1-3-3V4.16a3,3,0,0,1,3-3h20.84a3,3,0,0,1,3,3Z"/>
	<path class="cls-1"
		  d="M337.91,136.09c.84,1.42.18,2.58-1.47,2.58H311.15a5.71,5.71,0,0,1-4.48-2.61L274.28,78.71a1.94,1.94,0,0,0-3.4-.31L257,95a9.59,9.59,0,0,0-1.92,5.3v35.33a3,3,0,0,1-3,3H231.19a3,3,0,0,1-3-3V4.16a3,3,0,0,1,3-3H252a3,3,0,0,1,3,3V58c0,1.65.85,1.95,1.88.67l44.7-55.21a7.16,7.16,0,0,1,4.89-2.33h26.64c1.65,0,2.14,1,1.08,2.3L292.49,53.51a4.59,4.59,0,0,0-.39,4.89Z"/>
	<path class="cls-1"
		  d="M434.57,69.91q0,22.41-1.73,31.1a43.23,43.23,0,0,1-12,23.75q-15.06,15.08-37.08,15.07-22.21,0-37.27-15.07-9.27-9.27-12-23.75Q333,92.52,333,69.91t1.54-31.09q2.7-14.49,12-23.76Q361.57,0,383.78,0q22,0,37.08,15.06a43.29,43.29,0,0,1,12,23.76Q434.57,47.51,434.57,69.91Zm-26.84,0q0-15.82-.39-20.08Q406.19,37.08,401,31.29,394.4,24,383.78,24,373,24,366.4,31.29q-5,5.79-6.18,18.54-.39,3.48-.39,20.08T360.22,90q1.15,12.75,6.18,18.54,6.57,7.33,17.38,7.34,12,0,18.73-9.27Q407.73,99.47,407.73,69.91Z"/>
	<path class="cls-1"
		  d="M571.57,135.67a3,3,0,0,1-3,3H547.72a3,3,0,0,1-3-3V61.52c0-1.65-.6-1.79-1.35-.32L519.81,108a5.35,5.35,0,0,1-4.35,2.67H503.3A5.35,5.35,0,0,1,499,108L475.2,61.2c-.74-1.48-1.36-1.33-1.36.32v74.15a3,3,0,0,1-3,3H450a3,3,0,0,1-3-3V4.16a3,3,0,0,1,3-3h20.35a5.21,5.21,0,0,1,4.3,2.7l33.19,69c.71,1.49,1.88,1.49,2.59,0l33-68.95a5.21,5.21,0,0,1,4.29-2.7h20.85a3,3,0,0,1,3,3Z"/>
	<path class="cls-1"
		  d="M102.72,93.16l-6.09,45.58H135a3,3,0,0,0,3-3V123.3C122.77,115.62,111.38,104.05,102.72,93.16Z"/>
	<path class="cls-1"
		  d="M41.64,58.76c-.6.19-1.23.41-1.88.64a75.92,75.92,0,0,0-9.06,3.93c-.79.4-1.5.83-2.06,1.18a74.94,74.94,0,0,0,6.14,13.43c.84-1.72,1.68-3.62,2.45-5.57a107.43,107.43,0,0,0,4.27-13C41.55,59.15,41.6,59,41.64,58.76Z"/>
	<path class="cls-1"
		  d="M29.29,86.25a84.39,84.39,0,0,1-10-21.73c-1.05-3.84-.83-4.15,3.37-6.83,1.44-.92,3.08-1.78,4.89-2.7,3.63-1.82,10.35-4.68,12.28-5.34,12.94-4.38,13.62-4.94,11.91,5-.56,3.25-.84,4.11-1.52,6.91s-1.64,5.94-2.79,9.23C45.59,76,43.34,81.9,40.76,86.25A55.72,55.72,0,0,0,51.5,95.36c4.63,3,11.17,3.66,14.5,3.33,4.74-.48,10.41-3.6,13.2-6.15,3.3-3,8.89-7,13.1-14.85a121.54,121.54,0,0,1-13.54-35.5c-1.9-10.08-2.49-9.16,6-13.23,2.13-1,4.63-2.14,7.44-3.33a170.78,170.78,0,0,1,16.34-5.76c14.48-4.31,13.14-3.3,11.46,7.21-.46,2.85-1.1,6.17-2,10.49S115.7,46.81,114.18,52a227.75,227.75,0,0,1-8.57,24.59A92.15,92.15,0,0,0,138,107.15V3.74a3,3,0,0,0-3-3H3a3,3,0,0,0-3,3V109.63c3.55-2.07,7.39-4.48,11.1-7A99.22,99.22,0,0,0,29.29,86.25Z"/>
	<path class="cls-1"
		  d="M106.68,32.93c-1.25.43-2.6.91-4,1.43a127.93,127.93,0,0,0-12.21,5.26l.06.32c.34,1.77.88,4.14,1.69,7a114.66,114.66,0,0,0,5.87,15.84A260.71,260.71,0,0,0,106.25,35C106.41,34.26,106.55,33.58,106.68,32.93Z"/>
	<path class="cls-1"
		  d="M85.58,102.76a35.16,35.16,0,0,1-20.75,6.93h-.09c-10.22-.42-18.28-5.52-22.44-10.62,0,0,4.16,23.33,4.91,27.78.38,2.19-.07,2.51-1.57,2.94-1.3.37-3.32.69-4.83,1-1.73.3-2.26-.1-2.63-2.05-1-5-5.88-32.56-5.88-32.56-4.91,4.83-11.14,9.07-16.93,13A118.48,118.48,0,0,1,0,117.86v17.88a3,3,0,0,0,3,3H84.52l5.65-40.38C88.79,99.64,87,101.72,85.58,102.76Z"/>
	<script xmlns=""/>
</svg>